<svg width="153" height="124" viewBox="0 0 153 124" fill="none" xmlns="http://www.w3.org/2000/svg">
<path d="M2.33245 81C11.8325 54 27.9991 49.3333 41.3324 45C44.3324 36.6667 52.6324 20.6 55.8324 15C59.0324 9.4 76.1658 5.33333 84.8324 3C103.832 9 107.332 15 100.332 11C95.7276 8.36865 85.4035 7.49393 82.3324 12L79.3324 17.5C79.9952 21.3811 83.6475 27.8731 83.8324 30L98.3324 43.5L120.332 54L130.332 59.5L137.332 66C147.332 81 162.532 112.4 143.332 118C124.132 123.6 87.3324 120.333 71.3324 118C48.9991 113 -3.53319 97.6708 2.33245 81Z" fill="#764E12"/>
<path fill-rule="evenodd" clip-rule="evenodd" d="M80.7308 2.09378C78.2208 2.28966 75.5798 2.78321 73.539 3.43779C64.2461 6.41854 55.8283 11.4456 50.0137 17.4867C45.0613 22.6322 42.0278 28.3534 40.6903 35.0707C40.1863 37.6017 39.9955 43.3186 40.3192 46.1834C40.5241 47.9968 41.3462 52.4875 41.5268 52.781C41.6244 52.9392 44.7446 50.9388 45.4958 50.2365C45.7722 49.9779 45.9985 49.8136 45.9985 49.8714C45.9985 49.9291 45.3477 51.255 44.5525 52.8178C42.1403 57.5576 41.1034 61.5605 41.3105 65.333C41.7745 73.7848 47.9704 80.3415 60.297 85.4254C69.8711 89.3738 84.9786 92.396 98.7871 93.125C110.023 93.7182 117.509 95.4255 125.243 99.1581C132.877 102.842 139.624 108.563 143.624 114.743C143.907 115.181 143.908 115.18 144.561 113.917C146.647 109.881 146.89 105.841 145.294 101.701C143.784 97.7832 140.205 94.4017 134.476 91.48C124.983 86.639 109.663 83.1898 90.4447 81.5672C83.348 80.968 74.8345 79.3837 68.6518 77.5117C54.8609 73.3364 46.8898 66.8595 45.3192 58.5532C45.0104 56.9203 45.077 53.3893 45.4316 52.5862C45.5978 52.21 45.6162 52.3252 45.5342 53.2281C45.2007 56.8957 46.6142 61.5673 48.9924 64.6588C50.3545 66.4293 53.8268 69.4597 54.4933 69.4597C54.619 69.4597 55.8233 68.9559 57.1695 68.34C61.6001 66.3133 65.2279 64.9455 66.7666 64.7214L67.6044 64.5994L66.362 63.5907C64.4728 62.0563 61.0411 58.5394 59.2746 56.3273C49.6335 44.253 48.4411 32.2519 55.7871 21.2234C57.2947 18.9602 58.4241 17.7067 60.5915 15.8912C66.0259 11.3397 72.7895 7.73247 78.8013 6.17937C81.8369 5.39512 83.469 5.18805 86.4891 5.20456C90.6379 5.22712 93.6944 5.96203 97.2468 7.79116C98.9828 8.68509 101.15 10.1815 102.595 11.4835C103.532 12.3278 103.39 12.2648 101.296 10.9096C95.4794 7.14465 88.8509 5.71682 83.5642 7.08999C81.7748 7.55475 79.056 8.84576 77.4594 9.98876C73.8544 12.5699 70.091 17.2677 67.6515 22.2322C65.4793 26.653 64.7347 29.6972 64.7587 34.062C64.772 36.5207 64.8395 37.152 65.2576 38.7347C66.4831 43.3732 69.8249 48.0997 74.181 51.3561C78.3151 54.4465 84.804 57.5848 92.4195 60.1773C94.9669 61.0444 95.5844 61.3362 97.1351 62.4058C98.1165 63.0826 99.3903 64.0426 99.9658 64.5389L101.012 65.4412L103.53 65.7059C113.477 66.7508 123.127 68.7993 129.693 71.2593C131.668 71.9994 131.42 71.7041 128.357 69.6688C124.162 66.8823 118.053 64.014 111.841 61.9147C106.034 59.952 99.5855 56.6885 93.2527 52.5071C81.9161 45.0219 75.1795 36.5787 73.714 28.0181C73.1747 24.869 73.4178 20.8366 74.3231 17.9114C75.5061 14.0883 79.2516 10.6043 83.4728 9.4002C83.765 9.31693 83.5966 9.50016 83.0063 9.90824C81.63 10.8596 80.28 12.4455 79.5027 14.0239L78.8114 15.4281L78.8185 18.0965C78.8251 20.6066 78.8606 20.8702 79.4168 22.5397C81.1595 27.7698 83.9276 32.0034 88.7532 36.818C93.707 41.7607 98.7463 45.244 106.506 49.0891C109.707 50.6753 112.283 51.7652 118.662 54.2323C121.301 55.2529 125.284 57.2211 127.847 58.7711C132.193 61.4 136.122 64.737 138.325 67.6708C138.922 68.4653 139.41 69.019 139.41 68.9012C139.41 68.4114 138.219 66.2392 137.225 64.9152C135.241 62.2732 131.646 59.1757 127.704 56.7101C125.287 55.1986 119.563 52.3305 116.194 50.943C107.049 47.1758 98.2096 41.9927 92.2535 36.9057C90.1619 35.119 86.8872 31.7199 85.6268 30.027C82.4629 25.7771 80.673 21.2252 80.6509 17.3718C80.6392 15.3461 81.1202 14.0951 82.4753 12.6265C84.185 10.7737 86.298 9.92566 89.6881 9.73217C93.3728 9.52162 99.5075 10.8258 103.281 12.6216C104.362 13.1362 104.406 13.1425 104.462 12.7879C104.549 12.2379 103.36 9.91044 102.356 8.66638C99.5278 5.16183 94.657 2.80613 88.909 2.1631C87.2815 1.98098 82.6764 1.9421 80.7308 2.09378ZM37.6391 46.0724C34.3997 47.169 30.6545 48.7163 27.6269 50.209C18.5031 54.7071 13.1441 59.6789 11.5224 65.1496C11.0091 66.8814 11.0918 69.8407 11.712 71.9357C14.0511 79.838 21.0877 87.4306 32.0141 93.8425C38.4967 97.6468 46.856 101.222 55.8062 104.019C57.9022 104.674 60.4533 105.378 61.4752 105.584C69.9682 107.295 78.0338 112.825 83.276 120.533C83.8869 121.431 84.3868 122.087 84.3868 121.991C84.3868 121.894 84.1373 121.164 83.8322 120.369C82.616 117.2 80.2243 113.119 77.8586 110.176C76.4337 108.404 72.9873 105.062 71.1878 103.708C68.4844 101.674 64.8218 99.6254 61.9936 98.5646C61.2898 98.3004 59.2333 97.536 57.4236 96.8655C49.1706 93.8079 40.7301 89.6962 34.7562 85.8232C26.5621 80.5111 21.5643 74.9876 20.1156 69.6431C19.6822 68.044 19.6807 65.0156 20.1127 63.4072C21.6767 57.5837 27.5967 51.9332 37.7724 46.5513C38.9286 45.9397 39.7924 45.4395 39.6918 45.4395C39.5913 45.4395 38.6676 45.7243 37.6391 46.0724ZM6.27859 72.8861C2.14818 78.0423 0.132245 83.5794 0.348134 89.1761C0.574443 95.042 3.11667 100.1 8.36765 105.133C15.3892 111.862 27.1997 117.396 39.6743 119.803C46.2656 121.075 50.9122 121.456 58.0193 121.309C63.3954 121.198 66.4344 120.937 71.2633 120.171C75.0409 119.572 75.4782 119.476 75.5632 119.22C75.6562 118.94 72.6841 116.393 70.7524 115.098C66.4066 112.184 61.2313 110.309 56.1939 109.823C54.4889 109.658 53.8447 109.486 51.2582 108.506C41.3275 104.744 31.8926 99.8735 24.8977 94.8975C21.7659 92.6698 19.49 90.7468 16.8323 88.0826C11.9454 83.1841 9.16722 78.6787 7.87006 73.5481C7.62383 72.5745 7.39057 71.7461 7.35145 71.7068C7.31251 71.6676 6.82973 72.1984 6.27859 72.8861Z" fill="#412C0B"/>
<path d="M81.1256 0.649998C81.2984 0.637135 81.2026 1.46807 80.9278 2.3518C80.2249 4.61293 75.9236 4.14775 74.9605 4.3788C70.6458 5.41393 66.0806 7.35303 61.3385 10.0333C59.1944 11.2453 57.0015 12.6457 54.7221 14.4039C52.9777 15.7495 51.1826 17.296 49.2792 19.3236C48.1211 20.5572 46.9134 21.9739 45.6112 23.9016C38.6422 34.2181 39.6714 52.5951 42.3285 51.1795C43.1084 50.764 46.4901 46.2193 46.4804 48.7101C46.4705 51.2236 41.7835 56.9964 41.7684 63.1566C41.7484 71.3083 44.6605 72.9217 46.6562 75.0706C51.4778 80.2623 57.1462 82.7158 62.8787 84.8275C82.5896 92.0884 105.32 88.689 124.654 97.2426C130.376 99.774 135.724 103.594 140.632 108.856C141.226 109.493 143.332 117.346 145.449 111.068C146.904 106.752 143.939 101.201 143.569 100.636C138.962 93.5963 132.615 91.8796 126.541 89.7837C120.486 87.694 114.228 86.3054 107.885 85.2259C90.4916 82.2659 72.223 82.4917 56.4006 74.0251C53.9068 72.6907 51.5849 70.7828 49.3551 68.567C48.1476 67.367 47.1031 65.6577 46.1052 63.7908C45.3856 62.4444 44.7544 60.6913 44.6466 57.5901C44.6281 57.0558 45.1052 50.499 45.9773 50.9461C46.7163 51.325 46.3319 56.6032 46.791 58.0456C48.1156 62.2077 50.1317 64.2403 52.191 66.0761C53.1378 66.9201 53.9761 68.3974 55.3191 67.8673C59.2705 66.3079 63.4542 63.8876 67.1558 63.2783C67.1933 63.2722 67.2208 63.3021 67.2361 63.3683C67.2908 63.6058 67.1784 64.2801 66.9721 64.9518C65.929 68.3483 63.76 66.8968 63.303 67.0623C60.7091 68.0016 58.0284 69.2771 55.3854 70.4055C51.5446 72.0454 48.921 67.813 46.8872 63.361C46.0009 61.4208 44.7418 47.3379 45.6963 56.534C45.8169 57.6955 46.0836 58.5472 46.3361 59.2995C46.771 60.5951 47.3294 61.7032 47.8848 62.6188C58.3559 79.8818 75.0659 78.664 90.2282 80.0689C99.8864 80.9638 109.432 82.2499 118.738 84.3946C127.145 86.3324 135.795 87.9706 142.582 95.4628C144.335 97.398 146.25 99.2507 146.784 104.877C146.878 105.875 146.877 108.096 146.091 110.742C143.391 119.837 142.537 115.174 141.881 114.298C141.195 113.38 140.478 112.514 139.757 111.708C138.554 110.363 137.311 109.149 136.04 108.03C133.685 105.956 131.235 104.202 128.712 102.694C124.425 100.132 119.932 98.2696 115.271 96.996C92.2411 90.702 64.3112 99.7442 45.7803 77.9211C43.9265 75.7379 41.5339 74.1822 40.9692 68.0681C40.7877 66.1035 40.4648 63.3308 42.0756 58.0448C42.5632 56.4449 45.9726 48.2361 46.0096 49.0382C46.0151 49.158 45.3209 51.1429 45.5905 51.3036C45.9293 51.5057 44.5877 52.1157 44.1003 52.4638C43.1686 53.1293 42.2161 53.8298 41.3677 54.1633C39.7423 54.8024 38.2775 39.8506 41.8967 29.7148C46.7125 16.2276 52.5914 13.8238 55.4049 11.5669C64.9593 3.90229 73.3941 1.22527 81.1256 0.649998ZM66.3752 66.1647C65.6108 66.1035 67.5848 63.1231 67.9957 63.156C68.7617 63.2173 66.7848 66.1975 66.3752 66.1647ZM68.0345 63.1666C69.101 64.3991 66.238 65.3772 65.9319 65.0234C64.8733 63.8 67.7039 62.7846 68.0345 63.1666ZM66.7929 62.1585C67.0373 62.3679 66.389 64.7462 66.0135 65.0146C63.3545 66.9151 61.8021 61.1314 60.1705 59.3225C56.6 55.3641 53.1931 50.7251 51.0735 42.274C50.5809 40.31 49.6769 35.9891 52.0251 28.2384C55.5887 16.4766 64.4177 11.8021 65.8791 10.8203C76.8481 3.4517 86.5469 1.91302 94.7026 5.04151C97.1194 5.9686 99.4472 7.20174 101.636 8.90497C101.92 9.12589 104.186 8.84606 103.49 11.7479C102.594 15.4838 101.024 12.4413 100.871 12.3463C99.6199 11.5691 98.3533 10.8462 97.0472 10.2556C95.3585 9.49198 93.6188 8.903 91.8219 8.51591C90.5695 8.24614 89.2893 8.07437 87.9731 8.03207C83.6378 7.89273 78.7757 8.43219 72.5589 15.7006C71.3162 17.1535 67.6769 21.0593 65.846 27.442C63.3772 36.0483 68.2616 43.0584 68.3588 43.2101C68.7798 43.8671 69.2207 44.4855 69.6672 45.0606C70.4059 46.012 71.1745 46.8669 71.9659 47.6467C80.4928 56.0485 91.7144 55.2631 100.397 63.1069C100.566 63.2597 100.287 64.6317 99.9085 65.4888C98.7102 68.2024 96.6609 63.7966 96.0938 63.4273C93.3355 61.6313 90.2242 61.0204 87.2747 59.8822C80.1397 57.1288 72.9786 54.2241 67.4677 46.0406C66.3332 44.3559 62.448 41.0611 64.8049 29.4857C66.6232 20.5555 71.6852 14.6111 73.1542 12.9491C80.6067 4.51744 86.3057 4.45305 91.3395 5.38821C93.1279 5.72045 94.8987 6.11657 96.5795 6.82537C98.92 7.81238 101.651 7.93945 103.499 10.5809C103.589 10.7095 103.014 11.5528 102.819 12.2285C102.246 14.2219 102.101 12.8401 101.505 12.3484C100.622 11.6213 99.716 10.9737 98.7941 10.3795C96.0979 8.64196 93.2365 7.45849 90.1814 6.96205C83.1254 5.81549 75.2644 7.48708 66.4699 12.8567C63.6091 14.6034 58.2224 15.3681 53.1257 26.907C49.4643 35.1963 53.1432 43.6392 53.5401 44.6263C57.0305 53.3087 61.8925 57.9585 66.7929 62.1585ZM99.5342 65.9705C98.9029 65.196 101.119 63.6117 101.443 64.0096C102.076 64.7852 99.8619 66.3725 99.5342 65.9705ZM100.607 66.8849C99.2453 66.4627 103.563 64.1468 103.935 64.2622C105.345 64.6993 101.008 67.0091 100.607 66.8849ZM103.126 67.1496C102.785 67.1101 103.594 64.2251 103.935 64.2622C104.612 64.3358 105.288 64.4139 105.965 64.4898C107.976 64.7153 109.972 64.9949 111.953 65.3294C116.784 66.1454 121.588 67.0623 126.236 68.52C127.38 68.8788 132.064 66.8224 130.472 72.9255C130.409 73.1686 130.402 72.8519 130.365 72.8193C129.654 72.1872 128.887 71.7379 128.135 71.2408C126.238 69.9858 124.295 68.885 122.321 67.8904C117.19 65.3049 111.784 63.6776 106.545 61.4667C97.3599 57.5906 88.5942 52.1684 80.7573 43.7688C77.7564 40.5526 72.1833 38.8787 72.9714 24.4609C73.674 11.6087 81.1483 9.03981 82.426 8.4591C83.07 8.16643 84.5704 7.99823 83.5708 10.3232C82.1084 13.7246 80.9219 12.1589 79.3575 15.159C78.7641 16.2968 79.0511 14.0555 79.648 12.8889C80.777 10.6826 81.7707 9.75817 82.5985 9.07117C83.031 8.71229 84.4286 7.11532 83.8735 8.08815C83.4125 8.89594 83.0354 10.378 83.1796 10.8228C83.2603 11.0715 81.803 11.2419 80.8624 11.707C80.0339 12.1166 76.2196 12.9338 74.4986 18.2377C73.2255 22.1611 74.1099 26.41 74.2934 27.2572C75.5932 33.2588 77.9128 36.3492 80.2223 39.2438C89.4949 50.8653 100.718 56.451 112.256 60.4733C117.402 62.267 122.443 64.4194 127.279 67.2796C128.751 68.1505 132.746 68.3459 130.905 72.5281C130.001 74.5803 128.562 72.4375 128.363 72.3678C127.317 72.001 126.473 71.7246 125.409 71.4038C124.338 71.0808 123.25 70.7784 122.167 70.4976C119.797 69.8831 117.402 69.3563 114.989 68.8947C111.081 68.1472 107.114 67.6107 103.126 67.1496ZM79.6235 12.9375C80.6876 10.8656 79.3952 15.1426 78.6906 16.5145C77.6268 18.586 78.9185 14.3103 79.6235 12.9375ZM78.3278 16.6241C78.3823 14.0999 79.3311 15.561 79.3021 16.9005C79.2475 19.4308 78.2991 17.9498 78.3278 16.6241ZM78.3349 19.2943C78.3348 16.0976 79.5704 20.1816 79.5915 20.2552C80.1723 22.2756 80.8844 23.9162 81.6381 25.412C84.1152 30.328 87.16 33.4823 90.2509 36.426C100.381 46.074 112.4 49.2086 123.704 54.8641C127.648 56.8376 131.476 59.1975 135.076 62.3326C136.18 63.2936 137.262 64.3338 138.268 65.6147C138.751 66.2297 139.21 66.9302 139.733 67.4175C139.754 67.4377 139.838 67.4273 139.799 67.4716C139.275 68.0765 139.191 68.9681 138.921 70.115C138.671 71.1792 138.693 69.5101 138.565 69.25C138.338 68.7883 138.098 68.3636 137.854 67.9543C137.067 66.6326 136.204 65.5511 135.304 64.5915C132.427 61.5272 129.302 59.2653 126.059 57.4253C114.326 50.7684 101.666 47.2831 90.8613 37.4815C87.6064 34.5289 84.2804 31.5861 81.8901 25.8685C81.2894 24.4318 79.1935 22.4232 80.3595 16.3855C81.7048 9.41947 86.9921 8.73868 87.4601 8.62428C91.6485 7.60031 95.3513 8.45404 98.9661 9.4901C99.3109 9.58893 105.649 11.4261 104.032 13.4763C103.645 13.9669 106.176 9.15853 104.467 13.6525C102.972 17.5836 100.362 13.0303 99.1673 12.6686C95.796 11.6479 92.3391 10.8896 88.5864 11.2275C87.1808 11.3541 85.7497 11.5421 84.139 12.4426C83.4531 12.8261 82.7271 13.3464 81.9039 14.31C81.6684 14.5858 81.2187 14.599 81.1916 15.1641C80.5695 28.1228 87.6302 30.6629 90.6799 33.6277C100.409 43.0854 111.804 46.9219 122.726 52.341C127.652 54.7849 132.459 57.6496 136.717 62.3322C137.282 62.9533 140.683 66.0409 139.534 69.3843C138.606 72.0824 137.448 68.4397 136.247 67.1671C132.756 63.4665 128.911 60.9233 124.945 58.8104C113.031 52.4622 100.206 49.3476 89.3838 39.2856C85.7351 35.8934 78.3354 33.5902 78.3349 19.2943ZM104.946 11.5799C104.947 12.3189 104.386 14.0797 104.094 14.2236C103.444 14.5443 103.225 12.086 102.845 11.4505C102.345 10.6135 101.803 9.91197 101.231 9.30517C98.6 6.51444 95.5247 5.1681 92.3222 4.31736C88.536 3.31153 84.4607 3.3275 80.3348 3.53763C80.1061 3.54928 80.3675 2.12632 80.7673 1.19155C81.3174 -0.0944682 88.0068 0.598335 88.8871 0.679871C93.3985 1.09776 97.6266 2.53508 101.341 5.70064C102.453 6.64798 104.937 7.14975 104.946 11.5799ZM38.0182 44.6321C38.0968 44.6077 38.1343 44.7312 38.1196 44.9817C37.8576 49.4356 33.256 48.9857 32.1646 49.4368C27.5326 51.3514 22.8527 53.318 17.6049 57.6925C17.2037 58.027 11.9361 62.909 11.7048 65.8343C10.7033 78.5048 20.4381 83.5926 23.1128 85.8662C34.9889 95.961 48.3609 101.309 62.3324 104.235C68.0128 105.425 73.2705 108.156 78.0144 112.541C79.5816 113.99 81.1079 115.576 82.537 117.475C83.0385 118.141 83.5274 118.848 84.0183 119.548C84.2697 119.906 85.4157 119.212 84.7928 120.558C82.6658 125.157 82.4212 119.389 81.1147 117.095C78.2028 111.981 74.8085 108.402 71.2144 105.498C58.7014 95.3875 43.5395 94.2102 30.8037 84.8141C27.463 82.3494 24.131 79.7408 21.4441 75.1409C20.5277 73.572 18.5632 72.0802 19.4511 65.3587C20.2871 59.0296 24.4347 55.0112 25.2685 54.1697C29.262 50.1396 32.8064 48.0957 36.3027 46.1162C37.1358 45.6445 37.9568 45.2208 38.7846 44.7699C39.1898 44.5492 40.4786 43.5861 40.0137 44.0549C39.1704 44.9053 39.5301 46.8199 39.1938 46.9037C38.5612 47.0613 37.895 47.3455 37.2599 47.5128C36.949 47.5947 37.4199 45.4747 37.8746 44.7805C38.3411 44.0683 40.9286 43.6932 39.5965 46.4951C38.4895 48.8237 35.8823 48.811 35.5786 48.9814C32.492 50.7131 29.3526 52.5896 25.9241 55.718C25.5619 56.0485 21.0026 60.2582 20.4224 63.2653C19.2702 69.237 21.621 71.0678 22.1657 72.0197C25.096 77.1396 28.7899 79.893 32.4763 82.5424C44.9962 91.5401 59.843 92.6822 72.0746 102.633C75.8619 105.714 79.4448 109.489 82.4573 115.075C82.5635 115.272 82.6692 115.471 82.7745 115.671C83.3982 116.857 83.9923 118.137 84.5243 119.605C84.6561 119.968 85.1773 120.422 84.5537 122.346C83.7813 124.73 83.1295 122.384 82.9361 122.103C82.2062 121.042 81.4602 120.033 80.6887 119.106C76.9825 114.651 72.8384 111.61 68.4273 109.506C53.6512 102.46 37.333 100.864 23.6831 89.9065C21.3513 88.0346 19.0832 85.9529 16.9442 83.4467C15.7813 82.0843 14.6597 80.5795 13.6348 78.7764C12.3457 76.5085 6.24581 66.1915 16.7212 56.2552C17.8617 55.1735 18.9533 54.2948 20.0256 53.5004C26.4519 48.739 32.354 46.3871 38.0182 44.6321ZM6.56033 71.5295C6.66354 71.4021 6.73489 71.4155 6.75577 71.5771C6.98802 73.3747 1.8979 78.4504 1.01106 84.4544C-0.606168 95.4031 3.50846 97.4144 5.07689 99.5289C15.8737 114.085 30.3867 117.11 44.8534 119.17C51.4835 120.115 58.3721 120.151 65.4379 119.525C67.7974 119.315 70.1958 118.963 72.6035 118.576C73.1919 118.482 73.7804 118.387 74.3717 118.282C74.6426 118.234 75.9527 117.53 75.6265 118.26C75.3656 118.843 75.2863 120.393 75.0968 120.552C73.3552 122.018 72.2554 117.923 71.1216 117.093C68.1009 114.882 64.8642 113.391 61.4901 112.39C47.2812 108.174 33.1659 103.731 20.7105 93.4654C16.932 90.3512 13.2048 86.9744 10.1262 81.592C8.88695 79.4252 8.43303 71.4058 5.99496 74.2451C5.19976 75.1712 7.28677 69.6305 7.79189 70.2845C9.09452 71.971 9.62562 76.2646 10.8028 78.3819C13.7128 83.6158 17.2482 86.906 20.8277 89.9743C31.3743 99.0151 42.7255 105.913 55.245 108.203C61.0662 109.267 66.8193 110.491 71.8899 114.161C72.6818 114.734 76.5813 116.684 75.7975 119.354C74.7477 122.93 71.1674 121.568 70.802 121.626C65.7938 122.419 60.9211 122.723 56.1152 122.777C39.3721 122.965 23.5584 119.437 10.0373 108.427C6.39621 105.462 2.35351 102.832 0.413871 94.4863C-1.03013 88.2734 1.37235 77.9364 6.56033 71.5295Z" fill="black"/>
</svg>
