<svg width="153" height="123" viewBox="0 0 153 123" fill="none" xmlns="http://www.w3.org/2000/svg">
<path d="M2.33245 80.5793C11.8325 53.5793 27.9991 48.9126 41.3324 44.5793C44.3324 36.246 52.6324 20.1793 55.8324 14.5793C59.0324 8.97928 76.1658 4.91262 84.8324 2.57928C103.832 8.57928 107.332 14.5793 100.332 10.5793C95.7276 7.94794 85.4035 7.07321 82.3324 11.5793L79.3324 17.0793C79.9952 20.9604 83.6475 27.4524 83.8324 29.5793L98.3324 43.0793L120.332 53.5793L130.332 59.0793L137.332 65.5793C147.332 80.5793 162.532 111.979 143.332 117.579C124.132 123.179 87.3324 119.913 71.3324 117.579C48.9991 112.579 -3.53319 97.25 2.33245 80.5793Z" fill="#FF9649"/>
<path fill-rule="evenodd" clip-rule="evenodd" d="M80.7308 1.67306C78.2208 1.86894 75.5798 2.36249 73.539 3.01707C64.2461 5.99782 55.8283 11.0249 50.0137 17.0659C45.0613 22.2115 42.0278 27.9327 40.6903 34.65C40.1863 37.181 39.9955 42.8979 40.3192 45.7627C40.5241 47.576 41.3462 52.0668 41.5268 52.3602C41.6244 52.5185 44.7446 50.5181 45.4958 49.8158C45.7722 49.5572 45.9985 49.3929 45.9985 49.4507C45.9985 49.5084 45.3477 50.8343 44.5525 52.3971C42.1403 57.1369 41.1034 61.1398 41.3105 64.9123C41.7745 73.3641 47.9704 79.9208 60.297 85.0047C69.8711 88.9531 84.9786 91.9753 98.7871 92.7043C110.023 93.2975 117.509 95.0048 125.243 98.7373C132.877 102.422 139.624 108.142 143.624 114.322C143.907 114.76 143.908 114.759 144.561 113.496C146.647 109.46 146.89 105.42 145.294 101.28C143.784 97.3625 140.205 93.981 134.476 91.0593C124.983 86.2183 109.663 82.7691 90.4447 81.1465C83.348 80.5473 74.8345 78.963 68.6518 77.091C54.8609 72.9157 46.8898 66.4388 45.3192 58.1325C45.0104 56.4996 45.077 52.9686 45.4316 52.1655C45.5978 51.7893 45.6162 51.9045 45.5342 52.8074C45.2007 56.475 46.6142 61.1466 48.9924 64.2381C50.3545 66.0085 53.8268 69.039 54.4933 69.039C54.619 69.039 55.8233 68.5352 57.1695 67.9193C61.6001 65.8926 65.2279 64.5248 66.7666 64.3007L67.6044 64.1787L66.362 63.1699C64.4728 61.6356 61.0411 58.1187 59.2746 55.9066C49.6335 43.8323 48.4411 31.8312 55.7871 20.8027C57.2947 18.5394 58.4241 17.286 60.5915 15.4705C66.0259 10.919 72.7895 7.31176 78.8013 5.75866C81.8369 4.9744 83.469 4.76734 86.4891 4.78384C90.6379 4.8064 93.6944 5.54132 97.2468 7.37045C98.9828 8.26438 101.15 9.7608 102.595 11.0628C103.532 11.907 103.39 11.8441 101.296 10.4889C95.4794 6.72393 88.8509 5.2961 83.5642 6.66928C81.7748 7.13403 79.056 8.42504 77.4594 9.56804C73.8544 12.1491 70.091 16.847 67.6515 21.8114C65.4793 26.2323 64.7347 29.2765 64.7587 33.6413C64.772 36.1 64.8395 36.7313 65.2576 38.3139C66.4831 42.9525 69.8249 47.6789 74.181 50.9353C78.3151 54.0258 84.804 57.1641 92.4195 59.7565C94.9669 60.6237 95.5844 60.9155 97.1351 61.9851C98.1165 62.6619 99.3903 63.6219 99.9658 64.1182L101.012 65.0205L103.53 65.2852C113.477 66.3301 123.127 68.3785 129.693 70.8386C131.668 71.5787 131.42 71.2834 128.357 69.2481C124.162 66.4616 118.053 63.5932 111.841 61.494C106.034 59.5313 99.5855 56.2677 93.2527 52.0864C81.9161 44.6012 75.1795 36.158 73.714 27.5974C73.1747 24.4483 73.4178 20.4159 74.3231 17.4907C75.5061 13.6676 79.2516 10.1836 83.4728 8.97948C83.765 8.89622 83.5966 9.07944 83.0063 9.48752C81.63 10.4389 80.28 12.0248 79.5027 13.6032L78.8114 15.0074L78.8185 17.6758C78.8251 20.1859 78.8606 20.4495 79.4168 22.119C81.1595 27.3491 83.9276 31.5827 88.7532 36.3973C93.707 41.34 98.7463 44.8233 106.506 48.6684C109.707 50.2545 112.283 51.3445 118.662 53.8116C121.301 54.8322 125.284 56.8004 127.847 58.3503C132.193 60.9793 136.122 64.3162 138.325 67.25C138.922 68.0446 139.41 68.5983 139.41 68.4805C139.41 67.9906 138.219 65.8185 137.225 64.4945C135.241 61.8525 131.646 58.7549 127.704 56.2894C125.287 54.7779 119.563 51.9098 116.194 50.5223C107.049 46.7551 98.2096 41.572 92.2535 36.485C90.1619 34.6982 86.8872 31.2991 85.6268 29.6063C82.4629 25.3564 80.673 20.8045 80.6509 16.9511C80.6392 14.9254 81.1202 13.6744 82.4753 12.2058C84.185 10.353 86.298 9.50495 89.6881 9.31145C93.3728 9.1009 99.5075 10.4051 103.281 12.2009C104.362 12.7155 104.406 12.7217 104.462 12.3672C104.549 11.8172 103.36 9.48973 102.356 8.24567C99.5278 4.74111 94.657 2.38542 88.909 1.74239C87.2815 1.56026 82.6764 1.52138 80.7308 1.67306ZM37.6391 45.6517C34.3997 46.7483 30.6545 48.2956 27.6269 49.7883C18.5031 54.2864 13.1441 59.2582 11.5224 64.7289C11.0091 66.4606 11.0918 69.4199 11.712 71.515C14.0511 79.4173 21.0877 87.0099 32.0141 93.4218C38.4967 97.2261 46.856 100.802 55.8062 103.598C57.9022 104.253 60.4533 104.958 61.4752 105.164C69.9682 106.874 78.0338 112.405 83.276 120.112C83.8869 121.011 84.3868 121.667 84.3868 121.57C84.3868 121.473 84.1373 120.743 83.8322 119.949C82.616 116.78 80.2243 112.699 77.8586 109.756C76.4337 107.983 72.9873 104.641 71.1878 103.288C68.4844 101.254 64.8218 99.2047 61.9936 98.1438C61.2898 97.8797 59.2333 97.1153 57.4236 96.4447C49.1706 93.3871 40.7301 89.2755 34.7562 85.4025C26.5621 80.0904 21.5643 74.5669 20.1156 69.2224C19.6822 67.6233 19.6807 64.5948 20.1127 62.9865C21.6767 57.163 27.5967 51.5125 37.7724 46.1306C38.9286 45.5189 39.7924 45.0188 39.6918 45.0188C39.5913 45.0188 38.6676 45.3036 37.6391 45.6517ZM6.27859 72.4654C2.14818 77.6216 0.132245 83.1587 0.348134 88.7554C0.574443 94.6213 3.11667 99.6795 8.36765 104.712C15.3892 111.441 27.1997 116.976 39.6743 119.382C46.2656 120.654 50.9122 121.036 58.0193 120.888C63.3954 120.777 66.4344 120.516 71.2633 119.75C75.0409 119.152 75.4782 119.055 75.5632 118.799C75.6562 118.519 72.6841 115.973 70.7524 114.677C66.4066 111.763 61.2313 109.888 56.1939 109.402C54.4889 109.237 53.8447 109.066 51.2582 108.086C41.3275 104.324 31.8926 99.4528 24.8977 94.4768C21.7659 92.2491 19.49 90.3261 16.8323 87.6619C11.9454 82.7634 9.16722 78.258 7.87006 73.1273C7.62383 72.1538 7.39057 71.3254 7.35145 71.2861C7.31251 71.2469 6.82973 71.7776 6.27859 72.4654Z" fill="#AA4A05"/>
<path d="M81.1256 0.229283C81.2984 0.216419 81.2026 1.04735 80.9278 1.93108C80.2249 4.19221 75.9236 3.72703 74.9605 3.95808C70.6458 4.99321 66.0806 6.93232 61.3385 9.61263C59.1944 10.8245 57.0015 12.225 54.7221 13.9832C52.9777 15.3288 51.1826 16.8753 49.2792 18.9029C48.1211 20.1365 46.9134 21.5532 45.6112 23.4809C38.6422 33.7974 39.6714 52.1744 42.3285 50.7588C43.1084 50.3433 46.4901 45.7986 46.4804 48.2894C46.4705 50.8029 41.7835 56.5757 41.7684 62.7359C41.7484 70.8876 44.6605 72.501 46.6562 74.6499C51.4778 79.8415 57.1462 82.2951 62.8787 84.4068C82.5896 91.6677 105.32 88.2683 124.654 96.8219C130.376 99.3533 135.724 103.173 140.632 108.435C141.226 109.072 143.332 116.925 145.449 110.647C146.904 106.331 143.939 100.781 143.569 100.215C138.962 93.1756 132.615 91.4588 126.541 89.363C120.486 87.2732 114.228 85.8847 107.885 84.8051C90.4916 81.8452 72.223 82.071 56.4006 73.6044C53.9068 72.2699 51.5849 70.3621 49.3551 68.1463C48.1476 66.9463 47.1031 65.2369 46.1052 63.37C45.3856 62.0237 44.7544 60.2706 44.6466 57.1693C44.6281 56.6351 45.1052 50.0783 45.9773 50.5254C46.7163 50.9043 46.3319 56.1824 46.791 57.6249C48.1156 61.787 50.1317 63.8196 52.191 65.6554C53.1378 66.4994 53.9761 67.9767 55.3191 67.4466C59.2705 65.8872 63.4542 63.4669 67.1558 62.8576C67.1933 62.8514 67.2208 62.8814 67.2361 62.9475C67.2908 63.1851 67.1784 63.8593 66.9721 64.5311C65.929 67.9276 63.76 66.4761 63.303 66.6416C60.7091 67.5809 58.0284 68.8563 55.3854 69.9848C51.5446 71.6247 48.921 67.3922 46.8872 62.9402C46.0009 61.0001 44.7418 46.9172 45.6963 56.1133C45.8169 57.2748 46.0836 58.1265 46.3361 58.8787C46.771 60.1744 47.3294 61.2825 47.8848 62.1981C58.3559 79.4611 75.0659 78.2433 90.2282 79.6482C99.8864 80.5431 109.432 81.8292 118.738 83.9739C127.145 85.9117 135.795 87.5499 142.582 95.042C144.335 96.9773 146.25 98.83 146.784 104.457C146.878 105.454 146.877 107.676 146.091 110.321C143.391 119.416 142.537 114.754 141.881 113.877C141.195 112.959 140.478 112.093 139.757 111.287C138.554 109.942 137.311 108.729 136.04 107.609C133.685 105.535 131.235 103.781 128.712 102.273C124.425 99.7116 119.932 97.8489 115.271 96.5753C92.2411 90.2813 64.3112 99.3235 45.7803 77.5004C43.9265 75.3172 41.5339 73.7615 40.9692 67.6474C40.7877 65.6828 40.4648 62.9101 42.0756 57.6241C42.5632 56.0242 45.9726 47.8154 46.0096 48.6175C46.0151 48.7373 45.3209 50.7222 45.5905 50.8829C45.9293 51.0849 44.5877 51.695 44.1003 52.0431C43.1686 52.7085 42.2161 53.4091 41.3677 53.7426C39.7423 54.3817 38.2775 39.4299 41.8967 29.2941C46.7125 15.8069 52.5914 13.4031 55.4049 11.1461C64.9593 3.48157 73.3941 0.804552 81.1256 0.229283ZM66.3752 65.744C65.6108 65.6828 67.5848 62.7024 67.9957 62.7353C68.7617 62.7966 66.7848 65.7768 66.3752 65.744ZM68.0345 62.7459C69.101 63.9784 66.238 64.9565 65.9319 64.6027C64.8733 63.3793 67.7039 62.3639 68.0345 62.7459ZM66.7929 61.7377C67.0373 61.9472 66.389 64.3255 66.0135 64.5939C63.3545 66.4944 61.8021 60.7107 60.1705 58.9018C56.6 54.9434 53.1931 50.3044 51.0735 41.8533C50.5809 39.8892 49.6769 35.5684 52.0251 27.8177C55.5887 16.0559 64.4177 11.3814 65.8791 10.3996C76.8481 3.03098 86.5469 1.49231 94.7026 4.6208C97.1194 5.54788 99.4472 6.78103 101.636 8.48425C101.92 8.70518 104.186 8.42535 103.49 11.3272C102.594 15.0631 101.024 12.0206 100.871 11.9255C99.6199 11.1484 98.3533 10.4255 97.0472 9.83492C95.3585 9.07126 93.6188 8.48229 91.8219 8.09519C90.5695 7.82542 89.2893 7.65366 87.9731 7.61135C83.6378 7.47201 78.7757 8.01147 72.5589 15.2799C71.3162 16.7328 67.6769 20.6386 65.846 27.0213C63.3772 35.6276 68.2616 42.6377 68.3588 42.7894C68.7798 43.4464 69.2207 44.0648 69.6672 44.6399C70.4059 45.5913 71.1745 46.4462 71.9659 47.226C80.4928 55.6278 91.7144 54.8423 100.397 62.6862C100.566 62.839 100.287 64.211 99.9085 65.0681C98.7102 67.7816 96.6609 63.3759 96.0938 63.0066C93.3355 61.2106 90.2242 60.5997 87.2747 59.4614C80.1397 56.708 72.9786 53.8034 67.4677 45.6198C66.3332 43.9351 62.448 40.6403 64.8049 29.065C66.6232 20.1348 71.6852 14.1904 73.1542 12.5284C80.6067 4.09672 86.3057 4.03233 91.3395 4.96749C93.1279 5.29974 94.8987 5.69585 96.5795 6.40466C98.92 7.39166 101.651 7.51873 103.499 10.1602C103.589 10.2888 103.014 11.1321 102.819 11.8078C102.246 13.8011 102.101 12.4193 101.505 11.9277C100.622 11.2006 99.716 10.553 98.7941 9.95879C96.0979 8.22124 93.2365 7.03778 90.1814 6.54134C83.1254 5.39477 75.2644 7.06637 66.4699 12.436C63.6091 14.1827 58.2224 14.9474 53.1257 26.4863C49.4643 34.7756 53.1432 43.2185 53.5401 44.2056C57.0305 52.888 61.8925 57.5378 66.7929 61.7377ZM99.5342 65.5498C98.9029 64.7753 101.119 63.1909 101.443 63.5889C102.076 64.3644 99.8619 65.9518 99.5342 65.5498ZM100.607 66.4642C99.2453 66.0419 103.563 63.7261 103.935 63.8415C105.345 64.2786 101.008 66.5884 100.607 66.4642ZM103.126 66.7288C102.785 66.6894 103.594 63.8044 103.935 63.8415C104.612 63.9151 105.288 63.9932 105.965 64.069C107.976 64.2946 109.972 64.5742 111.953 64.9087C116.784 65.7246 121.588 66.6416 126.236 68.0993C127.38 68.458 132.064 66.4017 130.472 72.5048C130.409 72.7479 130.402 72.4311 130.365 72.3986C129.654 71.7665 128.887 71.3172 128.135 70.8201C126.238 69.5651 124.295 68.4643 122.321 67.4697C117.19 64.8842 111.784 63.2569 106.545 61.0459C97.3599 57.1699 88.5942 51.7477 80.7573 43.3481C77.7564 40.1319 72.1833 38.458 72.9714 24.0402C73.674 11.188 81.1483 8.61909 82.426 8.03838C83.07 7.74571 84.5704 7.57752 83.5708 9.90246C82.1084 13.3039 80.9219 11.7382 79.3575 14.7382C78.7641 15.8761 79.0511 13.6348 79.648 12.4682C80.777 10.2619 81.7707 9.33746 82.5985 8.65046C83.031 8.29158 84.4286 6.69461 83.8735 7.66743C83.4125 8.47522 83.0354 9.95728 83.1796 10.4021C83.2603 10.6508 81.803 10.8212 80.8624 11.2862C80.0339 11.6959 76.2196 12.5131 74.4986 17.8169C73.2255 21.7404 74.1099 25.9893 74.2934 26.8365C75.5932 32.838 77.9128 35.9285 80.2223 38.8231C89.4949 50.4446 100.718 56.0303 112.256 60.0526C117.402 61.8463 122.443 63.9987 127.279 66.8588C128.751 67.7298 132.746 67.9252 130.905 72.1074C130.001 74.1596 128.562 72.0168 128.363 71.9471C127.317 71.5803 126.473 71.3039 125.409 70.9831C124.338 70.6601 123.25 70.3577 122.167 70.0769C119.797 69.4624 117.402 68.9356 114.989 68.474C111.081 67.7265 107.114 67.19 103.126 66.7288ZM79.6235 12.5167C80.6876 10.4449 79.3952 14.7219 78.6906 16.0938C77.6268 18.1653 78.9185 13.8895 79.6235 12.5167ZM78.3278 16.2033C78.3823 13.6792 79.3311 15.1402 79.3021 16.4798C79.2475 19.0101 78.2991 17.5291 78.3278 16.2033ZM78.3349 18.8736C78.3348 15.6768 79.5704 19.7608 79.5915 19.8345C80.1723 21.8549 80.8844 23.4955 81.6381 24.9913C84.1152 29.9073 87.16 33.0616 90.2509 36.0052C100.381 45.6533 112.4 48.7878 123.704 54.4434C127.648 56.4169 131.476 58.7767 135.076 61.9119C136.18 62.8729 137.262 63.9131 138.268 65.194C138.751 65.809 139.21 66.5095 139.733 66.9968C139.754 67.017 139.838 67.0066 139.799 67.0509C139.275 67.6558 139.191 68.5474 138.921 69.6943C138.671 70.7585 138.693 69.0893 138.565 68.8293C138.338 68.3676 138.098 67.9429 137.854 67.5336C137.067 66.2119 136.204 65.1304 135.304 64.1708C132.427 61.1064 129.302 58.8446 126.059 57.0046C114.326 50.3477 101.666 46.8624 90.8613 37.0608C87.6064 34.1082 84.2804 31.1654 81.8901 25.4478C81.2894 24.0111 79.1935 22.0025 80.3595 15.9648C81.7048 8.99876 86.9921 8.31796 87.4601 8.20357C91.6485 7.1796 95.3513 8.03333 98.9661 9.06938C99.3109 9.16821 105.649 11.0054 104.032 13.0556C103.645 13.5462 106.176 8.73781 104.467 13.2317C102.972 17.1629 100.362 12.6096 99.1673 12.2478C95.796 11.2271 92.3391 10.4689 88.5864 10.8068C87.1808 10.9334 85.7497 11.1213 84.139 12.0219C83.4531 12.4054 82.7271 12.9257 81.9039 13.8893C81.6684 14.165 81.2187 14.1783 81.1916 14.7434C80.5695 27.7021 87.6302 30.2422 90.6799 33.2069C100.409 42.6647 111.804 46.5012 122.726 51.9203C127.652 54.3642 132.459 57.2289 136.717 61.9115C137.282 62.5326 140.683 65.6202 139.534 68.9635C138.606 71.6617 137.448 68.0189 136.247 66.7464C132.756 63.0457 128.911 60.5026 124.945 58.3897C113.031 52.0415 100.206 48.9268 89.3838 38.8649C85.7351 35.4726 78.3354 33.1695 78.3349 18.8736ZM104.946 11.1592C104.947 11.8982 104.386 13.659 104.094 13.8029C103.444 14.1236 103.225 11.6653 102.845 11.0298C102.345 10.1927 101.803 9.49126 101.231 8.88446C98.6 6.09373 95.5247 4.74739 92.3222 3.89664C88.536 2.89081 84.4607 2.90679 80.3348 3.11692C80.1061 3.12857 80.3675 1.7056 80.7673 0.770837C81.3174 -0.515184 88.0068 0.17762 88.8871 0.259155C93.3985 0.677043 97.6266 2.11437 101.341 5.27993C102.453 6.22727 104.937 6.72903 104.946 11.1592ZM38.0182 44.2114C38.0968 44.187 38.1343 44.3105 38.1196 44.561C37.8576 49.0149 33.256 48.565 32.1646 49.0161C27.5326 50.9307 22.8527 52.8973 17.6049 57.2718C17.2037 57.6063 11.9361 62.4883 11.7048 65.4136C10.7033 78.0841 20.4381 83.1719 23.1128 85.4455C34.9889 95.5403 48.3609 100.888 62.3324 103.814C68.0128 105.004 73.2705 107.736 78.0144 112.12C79.5816 113.569 81.1079 115.155 82.537 117.054C83.0385 117.721 83.5274 118.427 84.0183 119.127C84.2697 119.486 85.4157 118.791 84.7928 120.138C82.6658 124.737 82.4212 118.969 81.1147 116.674C78.2028 111.56 74.8085 107.982 71.2144 105.078C58.7014 94.9668 43.5395 93.7895 30.8037 84.3933C27.463 81.9287 24.131 79.3201 21.4441 74.7202C20.5277 73.1513 18.5632 71.6595 19.4511 64.938C20.2871 58.6089 24.4347 54.5905 25.2685 53.749C29.262 49.7189 32.8064 47.675 36.3027 45.6955C37.1358 45.2238 37.9568 44.8001 38.7846 44.3492C39.1898 44.1285 40.4786 43.1654 40.0137 43.6342C39.1704 44.4846 39.5301 46.3992 39.1938 46.483C38.5612 46.6406 37.895 46.9248 37.2599 47.0921C36.949 47.174 37.4199 45.054 37.8746 44.3598C38.3411 43.6476 40.9286 43.2724 39.5965 46.0744C38.4895 48.403 35.8823 48.3903 35.5786 48.5607C32.492 50.2924 29.3526 52.1689 25.9241 55.2973C25.5619 55.6278 21.0026 59.8374 20.4224 62.8446C19.2702 68.8163 21.621 70.6471 22.1657 71.599C25.096 76.7189 28.7899 79.4723 32.4763 82.1216C44.9962 91.1194 59.843 92.2615 72.0746 102.212C75.8619 105.293 79.4448 109.068 82.4573 114.654C82.5635 114.851 82.6692 115.05 82.7745 115.25C83.3982 116.437 83.9923 117.716 84.5243 119.184C84.6561 119.547 85.1773 120.002 84.5537 121.926C83.7813 124.309 83.1295 121.963 82.9361 121.682C82.2062 120.622 81.4602 119.613 80.6887 118.685C76.9825 114.23 72.8384 111.189 68.4273 109.086C53.6512 102.039 37.333 100.444 23.6831 89.4858C21.3513 87.6139 19.0832 85.5322 16.9442 83.026C15.7813 81.6636 14.6597 80.1588 13.6348 78.3557C12.3457 76.0878 6.24581 65.7708 16.7212 55.8345C17.8617 54.7527 18.9533 53.8741 20.0256 53.0797C26.4519 48.3183 32.354 45.9664 38.0182 44.2114ZM6.56033 71.1088C6.66354 70.9814 6.73489 70.9948 6.75577 71.1564C6.98802 72.954 1.8979 78.0297 1.01106 84.0337C-0.606168 94.9824 3.50846 96.9937 5.07689 99.1082C15.8737 113.664 30.3867 116.689 44.8534 118.749C51.4835 119.694 58.3721 119.731 65.4379 119.104C67.7974 118.894 70.1958 118.542 72.6035 118.156C73.1919 118.061 73.7804 117.967 74.3717 117.861C74.6426 117.813 75.9527 117.109 75.6265 117.839C75.3656 118.422 75.2863 119.972 75.0968 120.132C73.3552 121.598 72.2554 117.503 71.1216 116.673C68.1009 114.462 64.8642 112.97 61.4901 111.969C47.2812 107.753 33.1659 103.31 20.7105 93.0447C16.932 89.9304 13.2048 86.5537 10.1262 81.1712C8.88695 79.0045 8.43303 70.9851 5.99496 73.8244C5.19976 74.7504 7.28677 69.2098 7.79189 69.8638C9.09452 71.5502 9.62562 75.8439 10.8028 77.9612C13.7128 83.1951 17.2482 86.4852 20.8277 89.5536C31.3743 98.5944 42.7255 105.492 55.245 107.782C61.0662 108.847 66.8193 110.071 71.8899 113.74C72.6818 114.313 76.5813 116.263 75.7975 118.933C74.7477 122.509 71.1674 121.147 70.802 121.205C65.7938 121.999 60.9211 122.302 56.1152 122.356C39.3721 122.544 23.5584 119.017 10.0373 108.006C6.39621 105.041 2.35351 102.411 0.413871 94.0656C-1.03013 87.8527 1.37235 77.5157 6.56033 71.1088Z" fill="black"/>
</svg>
