<svg width="154" height="124" viewBox="0 0 154 124" fill="none" xmlns="http://www.w3.org/2000/svg">
<path d="M2.99999 81C12.5 54 28.6667 49.3333 42 45C45 36.6667 53.3 20.6 56.5 15C59.7 9.4 76.8333 5.33333 85.5 3C104.5 9 108 15 101 11C96.3951 8.36865 86.0711 7.49393 83 12L80 17.5C80.6627 21.3811 84.315 27.8731 84.5 30L99 43.5L121 54L131 59.5L138 66C148 81 163.2 112.4 144 118C124.8 123.6 88 120.333 72 118C49.6666 113 -2.86565 97.6708 2.99999 81Z" fill="#FFF7EB"/>
<path fill-rule="evenodd" clip-rule="evenodd" d="M81.3983 2.09378C78.8883 2.28966 76.2474 2.78321 74.2066 3.43779C64.9137 6.41854 56.4958 11.4456 50.6813 17.4867C45.7288 22.6322 42.6954 28.3534 41.3578 35.0707C40.8538 37.6017 40.663 43.3186 40.9867 46.1834C41.1917 47.9968 42.0137 52.4875 42.1943 52.781C42.2919 52.9392 45.4122 50.9388 46.1633 50.2365C46.4397 49.9779 46.666 49.8136 46.666 49.8714C46.666 49.9291 46.0152 51.255 45.2201 52.8178C42.8078 57.5576 41.771 61.5605 41.9781 65.333C42.442 73.7848 48.6379 80.3415 60.9646 85.4254C70.5386 89.3738 85.6461 92.396 99.4546 93.125C110.691 93.7182 118.177 95.4255 125.911 99.1581C133.544 102.842 140.291 108.563 144.291 114.743C144.575 115.181 144.575 115.18 145.229 113.917C147.315 109.881 147.557 105.841 145.962 101.701C144.452 97.7832 140.873 94.4017 135.143 91.48C125.651 86.639 110.33 83.1898 91.1122 81.5672C84.0155 80.968 75.5021 79.3837 69.3194 77.5117C55.5284 73.3364 47.5574 66.8595 45.9867 58.5532C45.678 56.9203 45.7445 53.3893 46.0991 52.5862C46.2653 52.21 46.2838 52.3252 46.2017 53.2281C45.8683 56.8957 47.2817 61.5673 49.6599 64.6588C51.022 66.4293 54.4943 69.4597 55.1608 69.4597C55.2866 69.4597 56.4909 68.9559 57.837 68.34C62.2676 66.3133 65.8955 64.9455 67.4341 64.7214L68.2719 64.5994L67.0296 63.5907C65.1403 62.0563 61.7086 58.5394 59.9422 56.3273C50.301 44.253 49.1086 32.2519 56.4547 21.2234C57.9623 18.9602 59.0916 17.7067 61.2591 15.8912C66.6934 11.3397 73.4571 7.73247 79.4689 6.17937C82.5045 5.39512 84.1365 5.18805 87.1566 5.20456C91.3055 5.22712 94.3619 5.96203 97.9143 7.79116C99.6504 8.68509 101.818 10.1815 103.263 11.4835C104.2 12.3278 104.057 12.2648 101.964 10.9096C96.147 7.14465 89.5184 5.71682 84.2318 7.08999C82.4423 7.55475 79.7235 8.84576 78.1269 9.98876C74.5219 12.5699 70.7586 17.2677 68.3191 22.2322C66.1468 26.653 65.4023 29.6972 65.4262 34.062C65.4396 36.5207 65.507 37.152 65.9251 38.7347C67.1506 43.3732 70.4924 48.0997 74.8486 51.3561C78.9826 54.4465 85.4715 57.5848 93.0871 60.1773C95.6344 61.0444 96.2519 61.3362 97.8026 62.4058C98.7841 63.0826 100.058 64.0426 100.633 64.5389L101.679 65.4412L104.198 65.7059C114.144 66.7508 123.795 68.7993 130.36 71.2593C132.336 71.9994 132.087 71.7041 129.024 69.6688C124.83 66.8823 118.721 64.014 112.509 61.9147C106.702 59.952 100.253 56.6885 93.9203 52.5071C82.5836 45.0219 75.847 36.5787 74.3815 28.0181C73.8422 24.869 74.0854 20.8366 74.9906 17.9114C76.1737 14.0883 79.9191 10.6043 84.1404 9.4002C84.4325 9.31693 84.2641 9.50016 83.6739 9.90824C82.2976 10.8596 80.9476 12.4455 80.1703 14.0239L79.4789 15.4281L79.4861 18.0965C79.4926 20.6066 79.5281 20.8702 80.0844 22.5397C81.827 27.7698 84.5952 32.0034 89.4208 36.818C94.3745 41.7607 99.4138 45.244 107.173 49.0891C110.375 50.6753 112.951 51.7652 119.33 54.2323C121.969 55.2529 125.952 57.2211 128.514 58.7711C132.86 61.4 136.789 64.737 138.993 67.6708C139.589 68.4653 140.078 69.019 140.078 68.9012C140.078 68.4114 138.887 66.2392 137.893 64.9152C135.908 62.2732 132.314 59.1757 128.371 56.7101C125.954 55.1986 120.23 52.3305 116.862 50.943C107.717 47.1758 98.8771 41.9927 92.9211 36.9057C90.8295 35.119 87.5547 31.7199 86.2943 30.027C83.1304 25.7771 81.3406 21.2252 81.3185 17.3718C81.3068 15.3461 81.7877 14.0951 83.1428 12.6265C84.8526 10.7737 86.9656 9.92566 90.3556 9.73217C94.0404 9.52162 100.175 10.8258 103.948 12.6216C105.029 13.1362 105.073 13.1425 105.13 12.7879C105.217 12.2379 104.028 9.91044 103.024 8.66638C100.195 5.16183 95.3245 2.80613 89.5765 2.1631C87.949 1.98098 83.3439 1.9421 81.3983 2.09378ZM38.3067 46.0724C35.0672 47.169 31.322 48.7163 28.2944 50.209C19.1706 54.7071 13.8116 59.6789 12.19 65.1496C11.6767 66.8814 11.7593 69.8407 12.3795 71.9357C14.7187 79.838 21.7553 87.4306 32.6817 93.8425C39.1642 97.6468 47.5235 101.222 56.4737 104.019C58.5697 104.674 61.1209 105.378 62.1427 105.584C70.6357 107.295 78.7013 112.825 83.9435 120.533C84.5544 121.431 85.0544 122.087 85.0544 121.991C85.0544 121.894 84.8049 121.164 84.4998 120.369C83.2836 117.2 80.8918 113.119 78.5262 110.176C77.1012 108.404 73.6549 105.062 71.8554 103.708C69.1519 101.674 65.4893 99.6254 62.6612 98.5646C61.9574 98.3004 59.9009 97.536 58.0911 96.8655C49.8382 93.8079 41.3977 89.6962 35.4237 85.8232C27.2296 80.5111 22.2318 74.9876 20.7831 69.6431C20.3497 68.044 20.3482 65.0156 20.7802 63.4072C22.3442 57.5837 28.2643 51.9332 38.4399 46.5513C39.5962 45.9397 40.4599 45.4395 40.3594 45.4395C40.2588 45.4395 39.3351 45.7243 38.3067 46.0724ZM6.94613 72.8861C2.81572 78.0423 0.799787 83.5794 1.01568 89.1761C1.24198 95.042 3.78421 100.1 9.03519 105.133C16.0568 111.862 27.8672 117.396 40.3418 119.803C46.9331 121.075 51.5797 121.456 58.6869 121.309C64.0629 121.198 67.102 120.937 71.9309 120.171C75.7085 119.572 76.1457 119.476 76.2307 119.22C76.3238 118.94 73.3516 116.393 71.4199 115.098C67.0742 112.184 61.8989 110.309 56.8614 109.823C55.1564 109.658 54.5122 109.486 51.9258 108.506C41.9951 104.744 32.5601 99.8735 25.5652 94.8975C22.4335 92.6698 20.1576 90.7468 17.4998 88.0826C12.613 83.1841 9.83476 78.6787 8.5376 73.5481C8.29137 72.5745 8.05811 71.7461 8.01899 71.7068C7.98006 71.6676 7.49728 72.1984 6.94613 72.8861Z" fill="#E0D7C9"/>
<path d="M81.7931 0.649998C81.966 0.637135 81.8701 1.46807 81.5954 2.3518C80.8924 4.61293 76.5911 4.14775 75.628 4.3788C71.3134 5.41393 66.7481 7.35303 62.0061 10.0333C59.8619 11.2453 57.6691 12.6457 55.3897 14.4039C53.6452 15.7495 51.8502 17.296 49.9468 19.3236C48.7887 20.5572 47.5809 21.9739 46.2787 23.9016C39.3097 34.2181 40.3389 52.5951 42.996 51.1795C43.7759 50.764 47.1577 46.2193 47.1479 48.7101C47.1381 51.2236 42.4511 56.9964 42.436 63.1566C42.416 71.3083 45.328 72.9217 47.3238 75.0706C52.1454 80.2623 57.8137 82.7158 63.5463 84.8275C83.2571 92.0884 105.987 88.689 125.321 97.2426C131.043 99.774 136.392 103.594 141.299 108.856C141.893 109.493 143.999 117.346 146.116 111.068C147.571 106.752 144.607 101.201 144.237 100.636C139.63 93.5963 133.282 91.8796 127.209 89.7837C121.153 87.694 114.896 86.3054 108.552 85.2259C91.1591 82.2659 72.8905 82.4917 57.0681 74.0251C54.5743 72.6907 52.2525 70.7828 50.0227 68.567C48.8152 67.367 47.7706 65.6577 46.7727 63.7908C46.0531 62.4444 45.422 60.6913 45.3142 57.5901C45.2956 57.0558 45.7728 50.499 46.6448 50.9461C47.3838 51.325 46.9995 56.6032 47.4585 58.0456C48.7832 62.2077 50.7992 64.2403 52.8585 66.0761C53.8053 66.9201 54.6436 68.3974 55.9867 67.8673C59.938 66.3079 64.1217 63.8876 67.8234 63.2783C67.8609 63.2722 67.8883 63.3021 67.9036 63.3683C67.9584 63.6058 67.846 64.2801 67.6397 64.9518C66.5966 68.3483 64.4275 66.8968 63.9706 67.0623C61.3766 68.0016 58.696 69.2771 56.053 70.4055C52.2121 72.0454 49.5886 67.813 47.5548 63.361C46.6684 61.4208 45.4093 47.3379 46.3639 56.534C46.4844 57.6955 46.7511 58.5472 47.0036 59.2995C47.4385 60.5951 47.997 61.7032 48.5523 62.6188C59.0235 79.8818 75.7334 78.664 90.8957 80.0689C100.554 80.9638 110.099 82.2499 119.405 84.3946C127.813 86.3324 136.462 87.9706 143.249 95.4628C145.003 97.398 146.917 99.2507 147.451 104.877C147.546 105.875 147.544 108.096 146.759 110.742C144.058 119.837 143.204 115.174 142.549 114.298C141.863 113.38 141.145 112.514 140.425 111.708C139.222 110.363 137.979 109.149 136.707 108.03C134.353 105.956 131.902 104.202 129.379 102.694C125.093 100.132 120.599 98.2696 115.939 96.996C92.9086 90.702 64.9788 99.7442 46.4479 77.9211C44.594 75.7379 42.2014 74.1822 41.6367 68.0681C41.4553 66.1035 41.1323 63.3308 42.7432 58.0448C43.2307 56.4449 46.6401 48.2361 46.6771 49.0382C46.6827 49.158 45.9885 51.1429 46.258 51.3036C46.5969 51.5057 45.2552 52.1157 44.7679 52.4638C43.8361 53.1293 42.8837 53.8298 42.0353 54.1633C40.4098 54.8024 38.9451 39.8506 42.5642 29.7148C47.38 16.2276 53.2589 13.8238 56.0724 11.5669C65.6269 3.90229 74.0616 1.22527 81.7931 0.649998ZM67.0427 66.1647C66.2783 66.1035 68.2523 63.1231 68.6633 63.156C69.4292 63.2173 67.4524 66.1975 67.0427 66.1647ZM68.7021 63.1666C69.7685 64.3991 66.9056 65.3772 66.5994 65.0234C65.5408 63.8 68.3715 62.7846 68.7021 63.1666ZM67.4605 62.1585C67.7049 62.3679 67.0565 64.7462 66.681 65.0146C64.022 66.9151 62.4696 61.1314 60.8381 59.3225C57.2675 55.3641 53.8606 50.7251 51.741 42.274C51.2484 40.31 50.3444 35.9891 52.6927 28.2384C56.2562 16.4766 65.0852 11.8021 66.5467 10.8203C77.5156 3.4517 87.2145 1.91302 95.3701 5.04151C97.787 5.9686 100.115 7.20174 102.303 8.90497C102.587 9.12589 104.854 8.84606 104.158 11.7479C103.262 15.4838 101.692 12.4413 101.539 12.3463C100.287 11.5691 99.0208 10.8462 97.7148 10.2556C96.0261 9.49198 94.2864 8.903 92.4894 8.51591C91.2371 8.24614 89.9568 8.07437 88.6406 8.03207C84.3054 7.89273 79.4432 8.43219 73.2265 15.7006C71.9837 17.1535 68.3444 21.0593 66.5135 27.442C64.0447 36.0483 68.9292 43.0584 69.0263 43.2101C69.4473 43.8671 69.8882 44.4855 70.3347 45.0606C71.0734 46.012 71.842 46.8669 72.6334 47.6467C81.1603 56.0485 92.3819 55.2631 101.064 63.1069C101.234 63.2597 100.955 64.6317 100.576 65.4888C99.3778 68.2024 97.3285 63.7966 96.7613 63.4273C94.0031 61.6313 90.8918 61.0204 87.9422 59.8822C80.8073 57.1288 73.6461 54.2241 68.1352 46.0406C67.0008 44.3559 63.1155 41.0611 65.4724 29.4857C67.2908 20.5555 72.3527 14.6111 73.8217 12.9491C81.2742 4.51744 86.9732 4.45305 92.007 5.38821C93.7954 5.72045 95.5662 6.11657 97.2471 6.82537C99.5876 7.81238 102.319 7.93945 104.167 10.5809C104.257 10.7095 103.681 11.5528 103.487 12.2285C102.914 14.2219 102.769 12.8401 102.172 12.3484C101.29 11.6213 100.384 10.9737 99.4616 10.3795C96.7655 8.64196 93.9041 7.45849 90.849 6.96205C83.793 5.81549 75.9319 7.48708 67.1374 12.8567C64.2766 14.6034 58.89 15.3681 53.7932 26.907C50.1318 35.1963 53.8108 43.6392 54.2076 44.6263C57.6981 53.3087 62.56 57.9585 67.4605 62.1585ZM100.202 65.9705C99.5704 65.196 101.787 63.6117 102.111 64.0096C102.743 64.7852 100.529 66.3725 100.202 65.9705ZM101.275 66.8849C99.9128 66.4627 104.23 64.1468 104.602 64.2622C106.013 64.6993 101.675 67.0091 101.275 66.8849ZM103.793 67.1496C103.452 67.1101 104.261 64.2251 104.603 64.2622C105.28 64.3358 105.956 64.4139 106.632 64.4898C108.644 64.7153 110.64 64.9949 112.621 65.3294C117.451 66.1454 122.255 67.0623 126.903 68.52C128.048 68.8788 132.732 66.8224 131.14 72.9255C131.077 73.1686 131.069 72.8519 131.033 72.8193C130.321 72.1872 129.554 71.7379 128.803 71.2408C126.905 69.9858 124.963 68.885 122.989 67.8904C117.858 65.3049 112.451 63.6776 107.212 61.4667C98.0275 57.5906 89.2618 52.1684 81.4248 43.7688C78.424 40.5526 72.8508 38.8787 73.639 24.4609C74.3416 11.6087 81.8158 9.03981 83.0936 8.4591C83.7376 8.16643 85.2379 7.99823 84.2383 10.3232C82.7759 13.7246 81.5894 12.1589 80.025 15.159C79.4316 16.2968 79.7186 14.0555 80.3156 12.8889C81.4445 10.6826 82.4382 9.75817 83.2661 9.07117C83.6985 8.71229 85.0961 7.11532 84.541 8.08815C84.08 8.89594 83.7029 10.378 83.8472 10.8228C83.9278 11.0715 82.4706 11.2419 81.53 11.707C80.7014 12.1166 76.8871 12.9338 75.1661 18.2377C73.893 22.1611 74.7775 26.41 74.961 27.2572C76.2607 33.2588 78.5803 36.3492 80.8898 39.2438C90.1624 50.8653 101.385 56.451 112.924 60.4733C118.07 62.267 123.111 64.4194 127.946 67.2796C129.419 68.1505 133.414 68.3459 131.572 72.5281C130.668 74.5803 129.23 72.4375 129.031 72.3678C127.984 72.001 127.14 71.7246 126.077 71.4038C125.006 71.0808 123.917 70.7784 122.835 70.4976C120.465 69.8831 118.07 69.3563 115.657 68.8947C111.749 68.1472 107.782 67.6107 103.793 67.1496ZM80.2911 12.9375C81.3551 10.8656 80.0627 15.1426 79.3581 16.5145C78.2943 18.586 79.5861 14.3103 80.2911 12.9375ZM78.9953 16.6241C79.0498 14.0999 79.9986 15.561 79.9697 16.9005C79.915 19.4308 78.9667 17.9498 78.9953 16.6241ZM79.0024 19.2943C79.0023 16.0976 80.2379 20.1816 80.2591 20.2552C80.8398 22.2756 81.5519 23.9162 82.3056 25.412C84.7828 30.328 87.8276 33.4823 90.9184 36.426C101.049 46.074 113.068 49.2086 124.371 54.8641C128.316 56.8376 132.144 59.1975 135.744 62.3326C136.847 63.2936 137.93 64.3338 138.936 65.6147C139.418 66.2297 139.878 66.9302 140.4 67.4175C140.422 67.4377 140.505 67.4273 140.467 67.4716C139.942 68.0765 139.858 68.9681 139.588 70.115C139.338 71.1792 139.36 69.5101 139.232 69.25C139.005 68.7883 138.766 68.3636 138.522 67.9543C137.734 66.6326 136.872 65.5511 135.971 64.5915C133.095 61.5272 129.969 59.2653 126.726 57.4253C114.994 50.7684 102.334 47.2831 91.5289 37.4815C88.2739 34.5289 84.948 31.5861 82.5576 25.8685C81.957 24.4318 79.8611 22.4232 81.0271 16.3855C82.3724 9.41947 87.6597 8.73868 88.1276 8.62428C92.316 7.60031 96.0188 8.45404 99.6336 9.4901C99.9785 9.58893 106.317 11.4261 104.699 13.4763C104.313 13.9669 106.844 9.15853 105.135 13.6525C103.64 17.5836 101.03 13.0303 99.8348 12.6686C96.4636 11.6479 93.0066 10.8896 89.2539 11.2275C87.8483 11.3541 86.4173 11.5421 84.8065 12.4426C84.1206 12.8261 83.3946 13.3464 82.5715 14.31C82.3359 14.5858 81.8863 14.599 81.8592 15.1641C81.237 28.1228 88.2977 30.6629 91.3474 33.6277C101.076 43.0854 112.471 46.9219 123.394 52.341C128.32 54.7849 133.127 57.6496 137.385 62.3322C137.949 62.9533 141.35 66.0409 140.201 69.3843C139.274 72.0824 138.115 68.4397 136.915 67.1671C133.424 63.4665 129.578 60.9233 125.613 58.8104C113.699 52.4622 100.874 49.3476 90.0513 39.2856C86.4026 35.8934 79.0029 33.5902 79.0024 19.2943ZM105.613 11.5799C105.615 12.3189 105.054 14.0797 104.762 14.2236C104.111 14.5443 103.892 12.086 103.512 11.4505C103.012 10.6135 102.471 9.91197 101.899 9.30517C99.2675 6.51444 96.1922 5.1681 92.9898 4.31736C89.2036 3.31153 85.1283 3.3275 81.0024 3.53763C80.7737 3.54928 81.035 2.12632 81.4349 1.19155C81.985 -0.0944682 88.6744 0.598335 89.5546 0.679871C94.066 1.09776 98.2941 2.53508 102.009 5.70064C103.12 6.64798 105.605 7.14975 105.613 11.5799ZM38.6857 44.6321C38.7644 44.6077 38.8018 44.7312 38.7871 44.9817C38.5252 49.4356 33.9235 48.9857 32.8321 49.4368C28.2001 51.3514 23.5202 53.318 18.2724 57.6925C17.8713 58.027 12.6036 62.909 12.3724 65.8343C11.3709 78.5048 21.1056 83.5926 23.7803 85.8662C35.6564 95.961 49.0285 101.309 62.9999 104.235C68.6803 105.425 73.9381 108.156 78.6819 112.541C80.2492 113.99 81.7754 115.576 83.2045 117.475C83.706 118.141 84.1949 118.848 84.6859 119.548C84.9373 119.906 86.0833 119.212 85.4603 120.558C83.3333 125.157 83.0888 119.389 81.7823 117.095C78.8704 111.981 75.476 108.402 71.8819 105.498C59.369 95.3875 44.207 94.2102 31.4712 84.8141C28.1306 82.3494 24.7985 79.7408 22.1116 75.1409C21.1952 73.572 19.2308 72.0802 20.1186 65.3587C20.9546 59.0296 25.1023 55.0112 25.9361 54.1697C29.9296 50.1396 33.4739 48.0957 36.9703 46.1162C37.8034 45.6445 38.6243 45.2208 39.4521 44.7699C39.8574 44.5492 41.1462 43.5861 40.6813 44.0549C39.838 44.9053 40.1977 46.8199 39.8613 46.9037C39.2287 47.0613 38.5625 47.3455 37.9275 47.5128C37.6165 47.5947 38.0875 45.4747 38.5421 44.7805C39.0087 44.0683 41.5962 43.6932 40.2641 46.4951C39.157 48.8237 36.5499 48.811 36.2461 48.9814C33.1596 50.7131 30.0201 52.5896 26.5916 55.718C26.2294 56.0485 21.6702 60.2582 21.09 63.2653C19.9378 69.237 22.2885 71.0678 22.8333 72.0197C25.7635 77.1396 29.4575 79.893 33.1439 82.5424C45.6637 91.5401 60.5106 92.6822 72.7422 102.633C76.5294 105.714 80.1124 109.489 83.1248 115.075C83.231 115.272 83.3368 115.471 83.442 115.671C84.0657 116.857 84.6598 118.137 85.1918 119.605C85.3236 119.968 85.8448 120.422 85.2212 122.346C84.4488 124.73 83.797 122.384 83.6037 122.103C82.8737 121.042 82.1278 120.033 81.3563 119.106C77.65 114.651 73.5059 111.61 69.0948 109.506C54.3187 102.46 38.0005 100.864 24.3506 89.9065C22.0189 88.0346 19.7508 85.9529 17.6117 83.4467C16.4489 82.0843 15.3272 80.5795 14.3023 78.7764C13.0133 76.5085 6.91336 66.1915 17.3887 56.2552C18.5292 55.1735 19.6209 54.2948 20.6931 53.5004C27.1195 48.739 33.0215 46.3871 38.6857 44.6321ZM7.22787 71.5295C7.33108 71.4021 7.40244 71.4155 7.42331 71.5771C7.65556 73.3747 2.56545 78.4504 1.6786 84.4544C0.0613731 95.4031 4.176 97.4144 5.74443 99.5289C16.5413 114.085 31.0543 117.11 45.521 119.17C52.151 120.115 59.0396 120.151 66.1054 119.525C68.465 119.315 70.8633 118.963 73.271 118.576C73.8595 118.482 74.448 118.387 75.0393 118.282C75.3101 118.234 76.6202 117.53 76.294 118.26C76.0331 118.843 75.9539 120.393 75.7643 120.552C74.0227 122.018 72.9229 117.923 71.7892 117.093C68.7684 114.882 65.5317 113.391 62.1576 112.39C47.9487 108.174 33.8335 103.731 21.378 93.4654C17.5995 90.3512 13.8723 86.9744 10.7938 81.592C9.55449 79.4252 9.10057 71.4058 6.6625 74.2451C5.8673 75.1712 7.95432 69.6305 8.45943 70.2845C9.76206 71.971 10.2932 76.2646 11.4703 78.3819C14.3803 83.6158 17.9157 86.906 21.4952 89.9743C32.0418 99.0151 43.3931 105.913 55.9125 108.203C61.7338 109.267 67.4869 110.491 72.5575 114.161C73.3493 114.734 77.2488 116.684 76.4651 119.354C75.4153 122.93 71.8349 121.568 71.4696 121.626C66.4614 122.419 61.5886 122.723 56.7827 122.777C40.0396 122.965 24.2259 119.437 10.7048 108.427C7.06375 105.462 3.02105 102.832 1.08141 94.4863C-0.362586 88.2734 2.03989 77.9364 7.22787 71.5295Z" fill="black"/>
</svg>
