<svg width="154" height="141" viewBox="0 0 154 141" fill="none" xmlns="http://www.w3.org/2000/svg">
<ellipse cx="76.9014" cy="42.6808" rx="74" ry="42" fill="#FFEBC3"/>
<path d="M148.905 42.5666C148.915 42.2744 149.936 42.0963 151.1 42.1917C154.971 42.5093 152.573 46.8702 152.412 47.6475C151.594 51.5929 149.834 55.4678 147.041 59.2441C145.339 61.544 143.204 63.7996 140.661 66.0039C131.725 73.7502 99.8282 91.9737 52.098 82.8393C25.7972 77.8059 14.4222 68.1496 8.36235 61.02C-7.26845 42.6299 -2.28985 20.9552 34.4189 7.26857C39.1461 5.50605 44.5705 3.85427 51.1965 2.56054C102.196 -7.39725 137.124 14.1452 146.117 25.1533C150.953 31.0731 153.039 37.0305 152.898 42.7936C152.892 43.0486 152.114 43.2246 151.1 43.1924C146.726 43.0538 148.714 39.4641 148.613 38.8199C148.1 35.5477 146.91 32.2417 144.887 28.9207C139.948 20.8108 116.682 -2.01422 68.2673 1.52622C45.5581 3.18689 32.6426 9.36291 24.1813 14.6077C2.73479 27.9016 -1.28484 44.7134 11.8724 60.5634C17.6511 67.5248 28.3019 77.0972 53.9888 82.061C77.811 86.6644 100.057 82.7111 112.384 78.6411C140.815 69.254 148.448 55.3842 148.905 42.5666Z" fill="black"/>
<path d="M4.61283 60.0399C3.73788 56.2776 6.59418 52.6808 10.4569 52.6808H143.346C147.209 52.6808 150.065 56.2776 149.19 60.0399L131.981 134.04C131.349 136.757 128.927 138.681 126.137 138.681H27.6662C24.876 138.681 22.4541 136.757 21.8221 134.04L4.61283 60.0399Z" fill="#FFB72D"/>
<path d="M1.83923 53.5231C-0.539236 53.3903 6.64378 51.8385 7.63591 51.8385C9.8936 51.8385 12.1513 51.8385 14.409 51.8385C22.1598 51.8385 29.9107 51.8385 37.6616 51.8385C75.6181 51.8385 116.542 49.8607 151.964 51.8385C152.582 51.873 151.874 52.7381 150.699 53.2764C147.175 54.8914 141.254 53.5231 139.394 53.5231C131.643 53.5231 123.892 53.5231 116.141 53.5231C78.1879 53.5231 37.2575 55.5007 1.83923 53.5231ZM149.592 53.3082C149.651 53.1296 149.835 52.9033 150.172 52.6444C153.208 50.3103 150.93 57.5569 150.831 57.9863C149.789 62.464 148.748 66.9416 147.707 71.4193C142.562 93.5426 139.834 114.763 132.21 138.053C132.061 138.51 130.891 139.326 130.066 139.497C128.008 139.921 130.759 134.291 130.972 133.375C132.014 128.898 133.055 124.42 134.096 119.942C139.241 97.8176 141.969 76.5992 149.592 53.3082ZM131.964 137.838C132.437 137.865 132.185 138.374 131.336 138.925C129.015 140.432 123.593 139.523 122.559 139.523C116.879 139.523 111.199 139.523 105.519 139.523C77.7338 139.523 47.7579 140.98 21.8392 139.523C21.3654 139.496 21.6175 138.988 22.4672 138.436C24.7831 136.933 30.2504 137.838 31.2442 137.838C36.924 137.838 42.6038 137.838 48.2836 137.838C76.0696 137.838 106.046 136.382 131.964 137.838ZM24.2128 137.964C24.2563 138.435 22.5346 139.576 21.7933 139.522C19.1973 139.331 20.5011 134.715 20.1411 133.167C19.1009 128.695 18.0608 124.222 17.0207 119.75C11.8935 97.7027 3.77155 77.03 1.59001 53.3977C1.54654 52.9268 3.26823 51.7857 4.00951 51.8401C6.59466 52.0298 5.30667 56.6674 5.66179 58.1944C6.70191 62.6669 7.74203 67.1395 8.78216 71.612C13.9079 93.6526 22.0317 114.336 24.2128 137.964Z" fill="black"/>
<path d="M56.0661 103.273C56.7779 96.6271 58.3642 112.901 58.4615 113.381C60.3274 122.579 63.6738 130.34 67.4831 136.786C67.5748 136.941 67.6476 137.119 67.6904 137.342C69.2133 145.275 61.9945 130.487 61.977 130.446C59.1335 123.754 55.0269 112.978 56.0661 103.273Z" fill="black"/>
<path d="M33.9717 72.6398C33.8137 71.3049 33.9232 69.5434 34.2884 68.3241C35.5382 64.1515 36.8329 81.5223 37.4014 84.6999C40.8316 103.873 46.4977 128.695 53.3084 132.756C54.2491 133.317 54.021 138.778 52.9744 139.49C50.6179 141.095 44.9606 125.933 43.4014 121.7C38.3285 107.927 36.5611 94.5133 33.9717 72.6398Z" fill="black"/>
<path d="M133.734 91.7353C130.927 83.1817 131.016 104.063 130.927 104.681C129.22 116.542 126.771 126.636 123.284 134.948C123.2 135.148 123.134 135.377 123.095 135.665C121.701 145.894 128.308 126.826 128.324 126.772C130.926 118.144 137.576 103.447 133.734 91.7353Z" fill="black"/>
<path d="M21.0301 88.3313C21.2162 87.7541 21.9366 87.5136 22.9329 87.8047C26.6308 88.8855 24.7362 96.6543 24.797 98.526C25.0251 105.541 28.2854 128.707 37.4621 136.621C39.6985 138.55 37.7253 140.195 35.2318 138.373C30.1875 134.688 27.9383 127.897 26.4149 124.045C21.6236 111.929 17.9584 97.8566 21.0301 88.3313Z" fill="black"/>
<path d="M129.849 71.6448C129.967 70.3085 129.885 68.5453 129.611 67.3247C128.674 63.1479 127.703 80.5362 127.276 83.717C124.704 102.909 120.454 127.756 115.346 131.821C114.641 132.383 114.812 137.849 115.597 138.562C117.364 140.168 121.607 124.991 122.776 120.754C126.581 106.968 127.907 93.5402 129.849 71.6448Z" fill="black"/>
<path d="M108.353 102.148C108.263 101.733 107.913 101.561 107.43 101.77C105.634 102.547 106.554 108.13 106.524 109.475C106.414 114.517 104.831 131.166 100.375 136.854C99.2896 138.24 100.248 139.422 101.458 138.113C103.907 135.465 104.999 130.584 105.739 127.815C108.065 119.108 109.845 108.994 108.353 102.148Z" fill="black"/>
<path d="M22.428 67.5077C22.5169 67.6536 22.651 67.6767 22.7706 67.5393C23.2147 67.0293 22.1102 65.0299 21.9222 64.5179C21.2173 62.5989 19.2683 56.1155 19.8189 53.4283C19.953 52.7735 19.482 52.4422 19.2977 53.083C18.9249 54.3793 19.3012 56.3557 19.4773 57.4913C20.031 61.0629 20.9609 65.1 22.428 67.5077Z" fill="black"/>
</svg>
